<?xml version="1.0" standalone="no"?>
<!DOCTYPE svg PUBLIC "-//W3C//DTD SVG 20010904//EN"
 "http://www.w3.org/TR/2001/REC-SVG-20010904/DTD/svg10.dtd">
<svg version="1.0" xmlns="http://www.w3.org/2000/svg"
 width="512.000000pt" height="512.000000pt" viewBox="0 0 512.000000 512.000000"
 preserveAspectRatio="xMidYMid meet">
<metadata>
Created by potrace 1.14, written by Peter Selinger 2001-2017
</metadata>
<g transform="translate(0.000000,512.000000) scale(0.100000,-0.100000)"
fill="#000000" stroke="none">
<path d="M363 5101 c-167 -48 -313 -202 -352 -371 -7 -30 -10 -749 -11 -2165
0 -2302 -3 -2174 56 -2292 36 -73 142 -179 214 -215 120 -60 -24 -57 2282 -57
1532 -1 2132 2 2170 10 184 39 341 194 384 377 11 47 14 440 14 2177 0 2312 3
2164 -57 2285 -33 67 -140 176 -209 212 -112 60 33 57 -2294 57 -2012 0 -2139
-1 -2197 -18z"/>
</g>
</svg>
